<svg width="57" height="57" viewBox="0 0 57 57" fill="none" xmlns="http://www.w3.org/2000/svg">
<path d="M28.5003 28.6419C29.854 28.6419 31.0077 28.1649 31.9613 27.211C32.9152 26.2574 33.3922 25.1037 33.3922 23.75C33.3922 22.3962 32.9152 21.2426 31.9613 20.289C31.0077 19.3351 29.854 18.8581 28.5003 18.8581C27.1465 18.8581 25.9929 19.3351 25.0393 20.289C24.0854 21.2426 23.6084 22.3962 23.6084 23.75C23.6084 25.1037 24.0854 26.2574 25.0393 27.211C25.9929 28.1649 27.1465 28.6419 28.5003 28.6419ZM28.5003 52.7327C21.9758 47.2152 17.0975 42.119 13.8655 37.4442C10.6336 32.7694 9.01758 28.344 9.01758 24.168C9.01758 18.1007 10.976 13.2671 14.8927 9.66743C18.8095 6.06733 23.3454 4.26727 28.5003 4.26727C33.6552 4.26727 38.1911 6.06733 42.1079 9.66743C46.0246 13.2671 47.983 18.1007 47.983 24.168C47.983 28.344 46.367 32.7694 43.135 37.4442C39.9031 42.119 35.0248 47.2152 28.5003 52.7327Z" fill="#E94E1A"></path>
</svg>