<svg width="54" height="54" viewBox="0 0 54 54" fill="none" xmlns="http://www.w3.org/2000/svg">
<path d="M9.16172 45.4573C7.74497 45.4573 6.53766 44.9584 5.53978 43.9605C4.54191 42.9626 4.04297 41.7553 4.04297 40.3385V13.6614C4.04297 12.2447 4.54191 11.0374 5.53978 10.0395C6.53766 9.0416 7.74497 8.54266 9.16172 8.54266H44.8388C46.2556 8.54266 47.4629 9.0416 48.4608 10.0395C49.4587 11.0374 49.9576 12.2447 49.9576 13.6614V40.3385C49.9576 41.7553 49.4587 42.9626 48.4608 43.9605C47.4629 44.9584 46.2556 45.4573 44.8388 45.4573H9.16172ZM27.0003 29.8282L44.8388 18.5782V13.6614L27.0003 24.9114L9.16172 13.6614V18.5782L27.0003 29.8282Z" fill="#E94E1A"></path>
</svg>