<svg width="66" height="66" viewBox="0 0 66 66" fill="none" xmlns="http://www.w3.org/2000/svg">
<path d="M54.7402 58.1422C48.9641 58.1422 43.2569 56.8837 37.6183 54.3666C31.9793 51.8495 26.8431 48.2797 22.2095 43.6572C17.5756 39.0232 14.0003 33.8842 11.4836 28.2402C8.96655 22.5961 7.70801 16.8861 7.70801 11.1101C7.70801 10.1348 8.03121 9.32117 8.67761 8.66929C9.32401 8.01741 10.1349 7.69147 11.1102 7.69147H22.1945C23.0853 7.69147 23.8475 7.95483 24.4811 8.48154C25.1147 9.00825 25.5101 9.68343 25.6672 10.5071L27.4324 19.7556C27.5671 20.6505 27.547 21.4093 27.3721 22.032C27.1966 22.6546 26.8607 23.1978 26.3641 23.6614L19.6187 30.2458C20.4889 31.8159 21.5193 33.3454 22.7098 34.8341C23.9007 36.3229 25.228 37.7763 26.6916 39.1942C28.0534 40.5556 29.4563 41.8034 30.9003 42.9377C32.3439 44.0719 33.8573 45.0977 35.4407 46.015L41.9963 39.5088C42.5275 38.988 43.179 38.6141 43.9505 38.387C44.7221 38.1596 45.5097 38.1132 46.3132 38.2479L55.3267 40.1179C56.1961 40.366 56.8827 40.7872 57.3865 41.3815C57.8904 41.9758 58.1423 42.6848 58.1423 43.5085V54.7236C58.1423 55.6989 57.8164 56.5125 57.1645 57.1644C56.5126 57.8163 55.7045 58.1422 54.7402 58.1422Z" fill="#E94E1A"></path>
</svg>