<svg width="33" height="33" viewBox="0 0 33 33" fill="none" xmlns="http://www.w3.org/2000/svg">
<path d="M9.83973 0.219971C4.53393 0.219971 0.219727 4.53417 0.219727 9.83997V23.16C0.219727 28.4658 4.53393 32.78 9.83973 32.78H23.1597C28.4655 32.78 32.7797 28.4658 32.7797 23.16V9.83997C32.7797 4.53417 28.4655 0.219971 23.1597 0.219971H9.83973ZM25.3797 6.13997C26.1937 6.13997 26.8597 6.80597 26.8597 7.61997C26.8597 8.43397 26.1937 9.09997 25.3797 9.09997C24.5657 9.09997 23.8997 8.43397 23.8997 7.61997C23.8997 6.80597 24.5657 6.13997 25.3797 6.13997ZM16.4997 8.35997C20.9915 8.35997 24.6397 12.0082 24.6397 16.5C24.6397 20.9918 20.9915 24.64 16.4997 24.64C12.0079 24.64 8.35973 20.9918 8.35973 16.5C8.35973 12.0082 12.0079 8.35997 16.4997 8.35997ZM16.4997 9.83997C12.8293 9.83997 9.83973 12.8296 9.83973 16.5C9.83973 20.1704 12.8293 23.16 16.4997 23.16C20.1701 23.16 23.1597 20.1704 23.1597 16.5C23.1597 12.8296 20.1701 9.83997 16.4997 9.83997Z" fill="#E94E1A"></path>
</svg>