<svg width="39" height="30" viewBox="0 0 39 30" fill="none" xmlns="http://www.w3.org/2000/svg">
<path d="M37.5103 5.75992C37.1596 3.82461 35.489 2.41523 33.5503 1.97523C30.649 1.35992 25.2796 0.919922 19.4703 0.919922C13.6643 0.919922 8.20902 1.35992 5.30434 1.97523C3.36902 2.41523 1.69496 3.73523 1.34434 5.75992C0.990274 7.95992 0.639648 11.0399 0.639648 14.9999C0.639648 18.9599 0.990274 22.0399 1.43027 24.2399C1.78434 26.1752 3.45496 27.5846 5.39027 28.0246C8.47027 28.6399 13.7503 29.0799 19.5596 29.0799C25.369 29.0799 30.649 28.6399 33.729 28.0246C35.6643 27.5846 37.335 26.2646 37.689 24.2399C38.0396 22.0399 38.4796 18.8705 38.569 14.9999C38.3903 11.0399 37.9503 7.95992 37.5103 5.75992ZM14.7196 21.1599V8.83992L25.455 14.9999L14.7196 21.1599Z" fill="#E94E1A"></path>
</svg>